<svg id="visual" viewBox="0 0 900 600" width="900" height="600" xmlns="http://www.w3.org/2000/svg" xmlns:xlink="http://www.w3.org/1999/xlink" version="1.1"><path d="M0 73L82 91L164 85L245 79L327 151L409 127L491 109L573 145L655 139L736 61L818 61L900 145L900 0L818 0L736 0L655 0L573 0L491 0L409 0L327 0L245 0L164 0L82 0L0 0Z" fill="#000000"></path><path d="M0 169L82 235L164 187L245 241L327 343L409 337L491 211L573 349L655 229L736 307L818 247L900 409L900 143L818 59L736 59L655 137L573 143L491 107L409 125L327 149L245 77L164 83L82 89L0 71Z" fill="#001a12"></path><path d="M0 457L82 511L164 445L245 469L327 469L409 469L491 439L573 433L655 409L736 493L818 415L900 517L900 407L818 245L736 305L655 227L573 347L491 209L409 335L327 341L245 239L164 185L82 233L0 167Z" fill="#00261f"></path><path d="M0 535L82 559L164 499L245 523L327 517L409 559L491 511L573 475L655 481L736 529L818 517L900 553L900 515L818 413L736 491L655 407L573 431L491 437L409 467L327 467L245 467L164 443L82 509L0 455Z" fill="#00332b"></path><path d="M0 601L82 601L164 601L245 601L327 601L409 601L491 601L573 601L655 601L736 601L818 601L900 601L900 551L818 515L736 527L655 479L573 473L491 509L409 557L327 515L245 521L164 497L82 557L0 533Z" fill="#004038"></path></svg>